<svg width="92" height="30" viewBox="0 0 92 30" fill="none" xmlns="http://www.w3.org/2000/svg">
<path fill-rule="evenodd" clip-rule="evenodd" d="M21.2378 14.5454C22.2174 14.5454 23.1569 14.9285 23.8496 15.6105C24.5423 16.2924 24.9314 17.2174 24.9314 18.1818C24.9314 22.3311 19.1298 25.2353 18.881 25.3589C18.7527 25.4221 18.6111 25.4551 18.4677 25.4551C18.3242 25.4551 18.1827 25.4221 18.0544 25.3589C17.8056 25.2353 12.004 22.3311 12.004 18.1818C12.0046 17.4435 12.2334 16.7228 12.6602 16.1157C13.0869 15.5085 13.6914 15.0435 14.393 14.7828C15.0946 14.522 15.8603 14.4778 16.5882 14.6558C17.316 14.8339 17.9716 15.2257 18.4677 15.7795C18.8136 15.3915 19.2398 15.0808 19.7175 14.868C20.1952 14.6552 20.7135 14.5452 21.2378 14.5454ZM21.2378 16.3637C20.7481 16.3637 20.2785 16.5554 19.9321 16.8963C19.5966 17.2266 19.4034 17.6708 19.3917 18.1367L19.3908 18.2044C19.3849 18.4373 19.2883 18.6594 19.1206 18.8246C18.9474 18.9951 18.7126 19.0909 18.4677 19.0909C18.2228 19.0909 17.988 18.9951 17.8148 18.8246C17.6471 18.6594 17.5505 18.4373 17.5446 18.2044L17.5437 18.1367C17.532 17.6709 17.3388 17.2266 17.0033 16.8963C16.657 16.5553 16.1873 16.3637 15.6975 16.3637C15.2077 16.3637 14.7382 16.5554 14.3918 16.8963C14.0455 17.2373 13.8508 17.6996 13.8508 18.1818C13.8508 20.475 16.876 22.6295 18.4677 23.5148C20.0594 22.6307 23.0846 20.4761 23.0846 18.1818C23.0846 17.6996 22.8899 17.2373 22.5436 16.8963C22.1973 16.5553 21.7276 16.3637 21.2378 16.3637Z" fill="#F70F3D"/>
<path fill-rule="evenodd" clip-rule="evenodd" d="M16.6209 0C16.8658 0 17.1006 0.0958427 17.2738 0.26633C17.447 0.436817 17.5443 0.668004 17.5443 0.909108V1.81816H20.3145C20.8043 1.81816 21.2739 2.0099 21.6202 2.35088C21.9665 2.69185 22.1612 3.15418 22.1612 3.63638V8.1818H23.0846V7.27275C23.0846 7.03165 23.182 6.80046 23.3551 6.62997C23.5283 6.45949 23.7631 6.36364 24.008 6.36364C24.2529 6.36364 24.4877 6.45949 24.6609 6.62997C24.834 6.80046 24.9314 7.03165 24.9314 7.27275V8.1818H27.7015C28.1913 8.1818 28.661 8.37349 29.0073 8.71446C29.3536 9.05544 29.5483 9.51781 29.5483 10V28.1818C29.5483 28.664 29.3536 29.1264 29.0073 29.4673C28.661 29.8083 28.1913 30 27.7015 30H9.23385C8.74406 30 8.27449 29.8083 7.92815 29.4673C7.58182 29.1264 7.38708 28.664 7.38708 28.1818V23.6364H1.84677C1.35698 23.6364 0.887409 23.4447 0.541074 23.1037C0.194742 22.7627 4.28202e-06 22.3004 0 21.8182V3.63638C0 3.15416 0.194738 2.69185 0.541074 2.35088C0.887411 2.0099 1.35698 1.81816 1.84677 1.81816H4.61692V0.909108C4.61692 0.668004 4.71427 0.436817 4.88743 0.26633C5.0606 0.0958425 5.29541 0 5.54031 0C5.7852 0 6.02002 0.0958425 6.19318 0.26633C6.36635 0.436817 6.46369 0.668004 6.46369 0.909108V1.81816H15.6975V0.909108C15.6975 0.668004 15.7949 0.436817 15.968 0.26633C16.1412 0.0958427 16.376 0 16.6209 0ZM9.84942 10C9.50945 10 9.23386 10.2713 9.23385 10.606V27.5758C9.23385 27.9105 9.50945 28.1818 9.84942 28.1818H27.086C27.4259 28.1818 27.7015 27.9105 27.7015 27.5758V10.606C27.7015 10.2713 27.4259 10 27.086 10H24.9314V10.9091C24.9314 11.1502 24.834 11.3814 24.6609 11.5518C24.4877 11.7223 24.2529 11.8182 24.008 11.8182C23.7631 11.8182 23.5283 11.7223 23.3551 11.5518C23.182 11.3814 23.0846 11.1502 23.0846 10.9091V10H13.8508V10.9091C13.8508 11.1502 13.7534 11.3814 13.5803 11.5518C13.4071 11.7223 13.1723 11.8182 12.9274 11.8182C12.6825 11.8182 12.4477 11.7223 12.2745 11.5518C12.1013 11.3814 12.004 11.1502 12.004 10.9091V10H9.84942ZM1.84677 21.8182H7.38708V16.7753C5.96371 15.5261 4.61692 13.8169 4.61692 11.8182C4.61753 11.0799 4.84636 10.3592 5.27308 9.75201C5.69982 9.14487 6.30431 8.67996 7.00592 8.41918C7.59318 8.20091 8.15229 8.17847 8.84251 8.1805C8.97634 8.1809 9.10121 8.1818 9.23385 8.1818H12.004V7.27275C12.004 7.03165 12.1013 6.80046 12.2745 6.62997C12.4477 6.45949 12.6825 6.36364 12.9274 6.36364C13.1723 6.36364 13.4071 6.45949 13.5803 6.62997C13.7534 6.80046 13.8508 7.03165 13.8508 7.27275V8.1818H20.3145V3.63638H17.5443V4.54543C17.5443 4.78653 17.447 5.01772 17.2738 5.18821C17.1006 5.35869 16.8658 5.45454 16.6209 5.45454C16.376 5.45454 16.1412 5.35869 15.968 5.18821C15.7949 5.01772 15.6975 4.78653 15.6975 4.54543V3.63638H6.46369V4.54543C6.46369 4.78653 6.36635 5.01772 6.19318 5.18821C6.02002 5.35869 5.7852 5.45454 5.54031 5.45454C5.29541 5.45454 5.0606 5.35869 4.88743 5.18821C4.71427 5.01772 4.61692 4.78653 4.61692 4.54543V3.63638H1.84677V21.8182ZM7.38708 10.2438C7.24854 10.3226 7.11985 10.4194 7.00477 10.5327C6.65843 10.8737 6.46369 11.336 6.46369 11.8182C6.46369 12.6215 6.83607 13.407 7.38708 14.1276V10.2438Z" fill="#F70F3D"/>
<path fill-rule="evenodd" clip-rule="evenodd" d="M37.8698 15.3087C38.6585 15.3087 39.3632 15.4742 39.9838 15.8051C40.6174 16.1233 41.141 16.5497 41.5548 17.0843C41.9685 17.6189 42.2659 18.2362 42.4469 18.9363C42.6409 19.6236 42.6926 20.3364 42.6021 21.0747H35.2321C35.2321 21.4565 35.2839 21.8257 35.3873 22.1821C35.5037 22.5385 35.6717 22.8504 35.8915 23.1177C36.1113 23.385 36.3893 23.6014 36.7255 23.7668C37.0617 23.9196 37.4625 23.996 37.928 23.996C38.5745 23.9959 39.0916 23.8623 39.4795 23.595C39.8803 23.3149 40.1777 22.9012 40.3717 22.3539H42.4663C42.35 22.8885 42.1495 23.3659 41.8651 23.7859C41.5806 24.2059 41.238 24.5624 40.8372 24.8551C40.4364 25.1351 39.9838 25.3452 39.4795 25.4852C38.9882 25.6379 38.471 25.7143 37.928 25.7143C37.1393 25.7143 36.441 25.587 35.8333 25.3324C35.2256 25.0778 34.7084 24.7215 34.2817 24.2632C33.868 23.805 33.5513 23.2577 33.3315 22.6213C33.1246 21.9848 33.0211 21.2848 33.0211 20.521C33.0211 19.821 33.131 19.1591 33.3508 18.5354C33.5836 17.8989 33.9068 17.3452 34.3205 16.8743C34.7472 16.3906 35.2579 16.0087 35.8527 15.7287C36.4475 15.4487 37.1199 15.3087 37.8698 15.3087ZM37.8698 17.027C37.4819 17.027 37.1263 17.097 36.8031 17.237C36.4927 17.3643 36.2212 17.5489 35.9885 17.7907C35.7687 18.0198 35.5877 18.2935 35.4455 18.6117C35.3162 18.9299 35.245 19.2736 35.2321 19.6428H40.3911C40.3652 19.2991 40.2877 18.9682 40.1584 18.65C40.042 18.3317 39.8739 18.058 39.6541 17.8289C39.4472 17.5871 39.1886 17.3962 38.8783 17.2561C38.5809 17.1034 38.2448 17.027 37.8698 17.027Z" fill="#F70F3D"/>
<path d="M47.7739 15.3087C48.3558 15.3087 48.9053 15.3851 49.4225 15.5378C49.9526 15.6778 50.4181 15.8942 50.8189 16.1869C51.2327 16.4797 51.5688 16.8488 51.8274 17.2943C52.086 17.7398 52.2412 18.268 52.2929 18.879H50.0819C49.9914 18.2681 49.7393 17.8099 49.3255 17.5044C48.9247 17.1862 48.4139 17.027 47.7933 17.027C47.5089 17.027 47.205 17.078 46.8818 17.1798C46.5585 17.2689 46.2612 17.4471 45.9897 17.7144C45.7181 17.9689 45.4918 18.3317 45.3108 18.8027C45.1298 19.2609 45.0393 19.8655 45.0393 20.6165C45.0393 21.0238 45.0846 21.4311 45.1751 21.8384C45.2785 22.2457 45.4336 22.6085 45.6405 22.9267C45.8603 23.2449 46.1383 23.5059 46.4745 23.7095C46.8107 23.9005 47.218 23.9959 47.6963 23.996C48.3428 23.996 48.873 23.7987 49.2867 23.4041C49.7134 23.0095 49.9784 22.4558 50.0819 21.743H52.2929C52.086 23.0286 51.5882 24.015 50.7995 24.7024C50.0237 25.377 48.9893 25.7143 47.6963 25.7143C46.9076 25.7143 46.2095 25.587 45.6018 25.3324C45.007 25.0651 44.5027 24.7087 44.089 24.2632C43.6752 23.805 43.3584 23.264 43.1386 22.6403C42.9318 22.0166 42.8283 21.342 42.8283 20.6165C42.8283 19.8782 42.9318 19.1845 43.1386 18.5354C43.3455 17.8862 43.6558 17.3262 44.0695 16.8552C44.4833 16.3715 44.9941 15.996 45.6018 15.7287C46.2224 15.4487 46.9464 15.3087 47.7739 15.3087Z" fill="#F70F3D"/>
<path fill-rule="evenodd" clip-rule="evenodd" d="M67.8839 15.3087C68.6856 15.3087 69.3967 15.4423 70.0174 15.7096C70.6509 15.9642 71.181 16.3206 71.6077 16.7788C72.0473 17.237 72.3771 17.7844 72.5969 18.4208C72.8296 19.0573 72.9459 19.751 72.9459 20.5019C72.9459 21.2656 72.8296 21.9657 72.5969 22.6021C72.3771 23.2386 72.0473 23.7859 71.6077 24.2441C71.181 24.7024 70.6509 25.0651 70.0174 25.3324C69.3967 25.587 68.6856 25.7143 67.8839 25.7143C67.0823 25.7143 66.3647 25.587 65.7311 25.3324C65.1105 25.0651 64.5804 24.7024 64.1408 24.2441C63.7141 23.7859 63.3844 23.2386 63.1516 22.6021C62.9318 21.9657 62.8219 21.2656 62.8219 20.5019C62.8219 19.751 62.9319 19.0573 63.1516 18.4208C63.3844 17.7844 63.7141 17.237 64.1408 16.7788C64.5804 16.3206 65.1105 15.9642 65.7311 15.7096C66.3647 15.4423 67.0823 15.3087 67.8839 15.3087ZM67.8839 17.027C67.3926 17.027 66.9659 17.1288 66.6039 17.3325C66.2419 17.5362 65.9445 17.8035 65.7118 18.1344C65.479 18.4526 65.3045 18.8218 65.1881 19.2418C65.0847 19.6619 65.0329 20.0819 65.0329 20.5019C65.0329 20.9347 65.0847 21.3611 65.1881 21.7812C65.3045 22.1885 65.479 22.5576 65.7118 22.8886C65.9445 23.2195 66.2419 23.4868 66.6039 23.6904C66.9659 23.8941 67.3926 23.996 67.8839 23.996C68.3753 23.996 68.802 23.8941 69.164 23.6904C69.526 23.4868 69.8234 23.2195 70.0562 22.8886C70.2889 22.5576 70.457 22.1885 70.5604 21.7812C70.6768 21.3611 70.735 20.9347 70.735 20.5019C70.735 20.0819 70.6768 19.6619 70.5604 19.2418C70.457 18.8218 70.2889 18.4526 70.0562 18.1344C69.8234 17.8035 69.526 17.5362 69.164 17.3325C68.802 17.1288 68.3753 17.027 67.8839 17.027Z" fill="#F70F3D"/>
<path fill-rule="evenodd" clip-rule="evenodd" d="M78.1781 15.3087C78.9668 15.3087 79.6715 15.4742 80.2922 15.8051C80.9257 16.1233 81.4494 16.5497 81.8631 17.0843C82.2769 17.6189 82.5742 18.2362 82.7552 18.9363C82.9492 19.6236 83.0009 20.3364 82.9104 21.0747H75.5404C75.5404 21.4565 75.5921 21.8257 75.6956 22.1821C75.8119 22.5385 75.9801 22.8504 76.1999 23.1177C76.4197 23.385 76.6977 23.6014 77.0339 23.7668C77.37 23.9196 77.7709 23.996 78.2363 23.996C78.8828 23.9959 79.4 23.8623 79.7879 23.595C80.1887 23.3149 80.4861 22.9012 80.68 22.3539H82.7747C82.6583 22.8885 82.4579 23.3659 82.1734 23.7859C81.889 24.2059 81.5463 24.5624 81.1455 24.8551C80.7447 25.1351 80.2921 25.3452 79.7879 25.4852C79.2965 25.6379 78.7794 25.7143 78.2363 25.7143C77.4476 25.7143 76.7494 25.587 76.1417 25.3324C75.534 25.0778 75.0168 24.7215 74.5901 24.2632C74.1763 23.805 73.8596 23.2577 73.6397 22.6213C73.4329 21.9848 73.3295 21.2848 73.3295 20.521C73.3295 19.821 73.4394 19.1591 73.6592 18.5354C73.8919 17.8989 74.2151 17.3452 74.6289 16.8743C75.0556 16.3906 75.5663 16.0087 76.1611 15.7287C76.7558 15.4487 77.4282 15.3087 78.1781 15.3087ZM78.1781 17.027C77.7902 17.027 77.4346 17.097 77.1114 17.237C76.8011 17.3643 76.5296 17.5489 76.2968 17.7907C76.077 18.0198 75.896 18.2935 75.7538 18.6117C75.6245 18.9299 75.5534 19.2736 75.5404 19.6428H80.6994C80.6735 19.2991 80.596 18.9682 80.4667 18.65C80.3503 18.3317 80.1822 18.058 79.9624 17.8289C79.7556 17.5871 79.497 17.3962 79.1867 17.2561C78.8893 17.1034 78.5531 17.027 78.1781 17.027Z" fill="#F70F3D"/>
<path d="M87.481 15.3087C87.9982 15.3087 88.4896 15.366 88.955 15.4805C89.4334 15.5823 89.8601 15.7542 90.2351 15.996C90.623 16.2379 90.9398 16.5561 91.1854 16.9507C91.444 17.3325 91.6056 17.7971 91.6703 18.3444H89.3623C89.2589 17.8226 89.0132 17.4725 88.6253 17.2943C88.2504 17.1161 87.8172 17.027 87.3259 17.027C87.1707 17.027 86.9832 17.0397 86.7634 17.0652C86.5566 17.0907 86.3562 17.1416 86.1622 17.218C85.9812 17.2816 85.826 17.3834 85.6967 17.5234C85.5674 17.6507 85.5028 17.8226 85.5028 18.039C85.5028 18.3063 85.5933 18.5227 85.7743 18.6881C85.9682 18.8536 86.2139 18.9936 86.5113 19.1081C86.8216 19.21 87.1707 19.2991 87.5586 19.3755C87.9465 19.4518 88.3473 19.5345 88.7611 19.6236C89.1619 19.7127 89.5563 19.8209 89.9442 19.9482C90.3321 20.0755 90.6747 20.2474 90.9721 20.4638C91.2824 20.6801 91.5281 20.9538 91.7091 21.2847C91.903 21.6157 92 22.023 92 22.5067C92 23.0922 91.8642 23.5886 91.5927 23.996C91.3212 24.4033 90.9656 24.7342 90.526 24.9888C90.0993 25.2433 89.6209 25.4279 89.0908 25.5425C88.5607 25.657 88.037 25.7143 87.5198 25.7143C86.8863 25.7143 86.298 25.6443 85.7549 25.5043C85.2248 25.3643 84.7593 25.1542 84.3585 24.8742C83.9706 24.5814 83.6603 24.2251 83.4275 23.805C83.2077 23.3722 83.0914 22.8631 83.0785 22.2776H85.2894C85.3541 22.914 85.5998 23.3595 86.0265 23.6141C86.4531 23.8686 86.9639 23.996 87.5586 23.996C87.7655 23.996 87.9983 23.9832 88.2569 23.9577C88.5284 23.9195 88.7805 23.8559 89.0132 23.7668C89.2459 23.6777 89.4334 23.5504 89.5757 23.385C89.7308 23.2068 89.802 22.9776 89.789 22.6976C89.7761 22.4176 89.6726 22.1885 89.4787 22.0103C89.2847 21.8321 89.0326 21.692 88.7223 21.5902C88.4249 21.4757 88.0823 21.3802 87.6944 21.3038C87.3065 21.2274 86.9121 21.1447 86.5113 21.0556C86.0976 20.9665 85.6967 20.8583 85.3089 20.731C84.9339 20.6038 84.5912 20.4319 84.2809 20.2155C83.9835 19.9991 83.7443 19.7255 83.5633 19.3945C83.3823 19.0509 83.2918 18.6308 83.2918 18.1344C83.2918 17.5998 83.4211 17.1543 83.6797 16.7979C83.9512 16.4288 84.2874 16.136 84.6882 15.9196C85.102 15.6905 85.5545 15.5314 86.0458 15.4423C86.5501 15.3532 87.0285 15.3087 87.481 15.3087Z" fill="#F70F3D"/>
<path d="M55.3313 16.8743H55.3701C55.6417 16.4288 56.0425 16.0597 56.5726 15.7669C57.1156 15.4614 57.7169 15.3087 58.3763 15.3087C59.4753 15.3087 60.3417 15.5887 60.9752 16.1487C61.6088 16.7088 61.9255 17.5489 61.9255 18.669V25.447H59.7145V19.2418C59.6887 18.4654 59.5206 17.9053 59.2103 17.5616C58.9 17.2052 58.4151 17.027 57.7557 17.027C57.3807 17.027 57.0445 17.097 56.7472 17.237C56.4498 17.3643 56.1976 17.5489 55.9908 17.7907C55.7839 18.0198 55.6223 18.2935 55.5059 18.6117C55.3895 18.9299 55.3313 19.2673 55.3313 19.6236V25.447H53.1204V11.8147H55.3313V16.8743Z" fill="#F70F3D"/>
<path fill-rule="evenodd" clip-rule="evenodd" d="M43.8021 6.22864C44.4248 6.22864 44.9672 6.34805 45.4295 6.58693C45.8918 6.81663 46.2691 7.12902 46.5616 7.52409C46.8635 7.91916 47.0804 8.36937 47.2125 8.87469C47.3446 9.38002 47.3918 9.90834 47.354 10.4596H42.0757C42.104 11.0935 42.2691 11.5529 42.571 11.8377C42.8729 12.1226 43.3069 12.265 43.8729 12.265C44.2785 12.265 44.6276 12.1685 44.92 11.9756C45.2125 11.7734 45.3917 11.5621 45.4578 11.3416H47.2267C46.9436 12.1961 46.5097 12.8071 45.9248 13.1746C45.3399 13.5421 44.6323 13.7259 43.8021 13.7259C43.2267 13.7259 42.7078 13.6386 42.2455 13.464C41.7833 13.2803 41.3918 13.023 41.071 12.6922C40.7503 12.3615 40.5002 11.9664 40.321 11.507C40.1512 11.0476 40.0663 10.5423 40.0663 9.99103C40.0663 9.45814 40.1559 8.96199 40.3351 8.5026C40.5144 8.04321 40.7691 7.64813 41.0993 7.31738C41.4295 6.97743 41.821 6.71099 42.2738 6.51805C42.7361 6.3251 43.2455 6.22864 43.8021 6.22864ZM43.7455 7.70327C43.4248 7.70327 43.1559 7.75839 42.9389 7.86864C42.7314 7.96971 42.5616 8.09834 42.4295 8.25454C42.3068 8.41072 42.2172 8.5761 42.1606 8.75066C42.1135 8.92522 42.0852 9.08143 42.0757 9.21924H45.3446C45.2503 8.7231 45.0804 8.34642 44.8351 8.08916C44.5993 7.83191 44.2361 7.70327 43.7455 7.70327Z" fill="#F70F3D"/>
<path d="M34.3242 7.41386H34.3666C34.6214 7.00041 34.9469 6.7018 35.3431 6.51805C35.7393 6.3251 36.1261 6.22864 36.5035 6.22864C37.0412 6.22864 37.4799 6.3021 37.8195 6.4491C38.1686 6.58691 38.4421 6.78447 38.6402 7.04171C38.8383 7.28978 38.9752 7.59762 39.0506 7.96513C39.1355 8.32344 39.178 8.7231 39.178 9.1641V13.5467H37.1685V9.52245C37.1685 8.93443 37.0742 8.49801 36.8855 8.21319C36.6969 7.91918 36.362 7.77216 35.8808 7.77216C35.3337 7.77216 34.9374 7.93297 34.6922 8.25454C34.4469 8.56692 34.3242 9.08602 34.3242 9.81185V13.5467H32.3148V3.70656H34.3242V7.41386Z" fill="#F70F3D"/>
<path d="M52.5364 6.22864C52.6684 6.22864 52.8147 6.25159 52.975 6.29753V8.1167C52.8807 8.09833 52.7675 8.08455 52.6354 8.07536C52.5034 8.05699 52.376 8.04782 52.2534 8.04782C51.8854 8.04782 51.5741 8.10755 51.3194 8.22699C51.0647 8.34643 50.8571 8.5118 50.6968 8.72312C50.5458 8.92525 50.4373 9.16412 50.3712 9.43976C50.3052 9.71539 50.2722 10.014 50.2722 10.3356V13.5467H48.2628V6.42156H50.1732V7.74461H50.2014C50.2958 7.5241 50.4231 7.32196 50.5835 7.1382C50.7439 6.94526 50.9279 6.7845 51.1354 6.65588C51.343 6.51806 51.5647 6.41237 51.8005 6.33887C52.0364 6.26537 52.2816 6.22864 52.5364 6.22864Z" fill="#F70F3D"/>
</svg>
