<svg width="24" height="24" viewBox="0 0 24 24" fill="none" xmlns="http://www.w3.org/2000/svg">
<g clip-path="url(#clip0_248_5330)">
<path d="M22.7378 12.2058C22.7378 11.3045 22.6647 10.6467 22.5064 9.96466H12.2141V14.0328H18.2555C18.1337 15.0438 17.476 16.5663 16.0143 17.5894L15.9938 17.7256L19.2481 20.2466L19.4735 20.2691C21.5441 18.3568 22.7378 15.5432 22.7378 12.2058Z" fill="#4285F4"/>
<path d="M12.2141 22.9244C15.1739 22.9244 17.6586 21.95 19.4736 20.2691L16.0143 17.5894C15.0887 18.235 13.8463 18.6856 12.2141 18.6856C9.31526 18.6856 6.85488 16.7734 5.97781 14.1303L5.84926 14.1412L2.46546 16.76L2.4212 16.883C4.22386 20.464 7.92666 22.9244 12.2141 22.9244Z" fill="#34A853"/>
<path d="M5.97778 14.1303C5.74636 13.4482 5.61243 12.7174 5.61243 11.9622C5.61243 11.207 5.74636 10.4762 5.9656 9.79412L5.95947 9.64885L2.53327 6.98803L2.42117 7.04135C1.67821 8.52736 1.25189 10.1961 1.25189 11.9622C1.25189 13.7283 1.67821 15.397 2.42117 16.883L5.97778 14.1303Z" fill="#FBBC05"/>
<path d="M12.2141 5.23869C14.2726 5.23869 15.6611 6.12785 16.4528 6.87089L19.5466 3.85018C17.6465 2.08405 15.1739 1 12.2141 1C7.92666 1 4.22386 3.46039 2.4212 7.04135L5.96564 9.79412C6.85488 7.15102 9.31526 5.23869 12.2141 5.23869Z" fill="#EB4335"/>
</g>
<defs>
<clipPath id="clip0_248_5330">
<rect width="22" height="22" fill="white" transform="translate(1 1)"/>
</clipPath>
</defs>
</svg>
