<svg width="24" height="24" viewBox="0 0 24 24" fill="none" xmlns="http://www.w3.org/2000/svg">
<g clip-path="url(#clip0_248_5324)">
<path d="M20.4273 8.4998C20.299 8.5988 18.0346 9.8682 18.0346 12.6908C18.0346 15.9556 20.916 17.1106 21.0022 17.1392C20.9889 17.2096 20.5445 18.721 19.483 20.261C18.5366 21.6162 17.5482 22.9692 16.0445 22.9692C14.5408 22.9692 14.1538 22.1002 12.4179 22.1002C10.7263 22.1002 10.1248 22.9978 8.74939 22.9978C7.37396 22.9978 6.41425 21.7438 5.31081 20.2038C4.03268 18.3954 3 15.586 3 12.9196C3 8.6428 5.79509 6.3746 8.54595 6.3746C10.0076 6.3746 11.226 7.3294 12.1437 7.3294C13.0172 7.3294 14.3794 6.3174 16.0423 6.3174C16.6725 6.3174 18.9369 6.3746 20.4273 8.4998ZM15.2528 4.5068C15.9405 3.695 16.427 2.5686 16.427 1.4422C16.427 1.286 16.4138 1.1276 16.385 1C15.2661 1.0418 13.9349 1.7414 13.1322 2.6676C12.502 3.3804 11.9138 4.5068 11.9138 5.6486C11.9138 5.8202 11.9425 5.9918 11.9558 6.0468C12.0265 6.06 12.1415 6.0754 12.2565 6.0754C13.2604 6.0754 14.5231 5.4066 15.2528 4.5068Z" fill="black"/>
</g>
<defs>
<clipPath id="clip0_248_5324">
<rect width="18" height="22" fill="white" transform="translate(3 1)"/>
</clipPath>
</defs>
</svg>
